<?xml version="1.0" encoding="UTF-8" standalone="no"?>
<svg
   xmlns:dc="http://purl.org/dc/elements/1.1/"
   xmlns:cc="http://creativecommons.org/ns#"
   xmlns:rdf="http://www.w3.org/1999/02/22-rdf-syntax-ns#"
   xmlns:svg="http://www.w3.org/2000/svg"
   xmlns="http://www.w3.org/2000/svg"
   xmlns:sodipodi="http://sodipodi.sourceforge.net/DTD/sodipodi-0.dtd"
   xmlns:inkscape="http://www.inkscape.org/namespaces/inkscape"
   id="Layer_1"
   style="enable-background:new 0 0 128 128;"
   version="1.1"
   viewBox="0 0 128 128"
   xml:space="preserve"
   sodipodi:docname="logo.svg"
   inkscape:version="0.92.4 (f8dce91, 2019-08-02)"><metadata
     id="metadata3983"><rdf:RDF><cc:Work
         rdf:about=""><dc:format>image/svg+xml</dc:format><dc:type
           rdf:resource="http://purl.org/dc/dcmitype/StillImage" /></cc:Work></rdf:RDF></metadata><defs
     id="defs3981" /><sodipodi:namedview
     pagecolor="#ffffff"
     bordercolor="#666666"
     borderopacity="1"
     objecttolerance="10"
     gridtolerance="10"
     guidetolerance="10"
     inkscape:pageopacity="0"
     inkscape:pageshadow="2"
     inkscape:window-width="1920"
     inkscape:window-height="976"
     id="namedview3979"
     showgrid="false"
     inkscape:zoom="6.203125"
     inkscape:cx="37.239295"
     inkscape:cy="64"
     inkscape:window-x="0"
     inkscape:window-y="34"
     inkscape:window-maximized="1"
     inkscape:current-layer="Layer_1" /><style
     type="text/css"
     id="style3868">
	.st0{fill:#F7F7EB;}
	.st1{fill:#FFC298;}
	.st2{fill:#E1927A;}
	.st3{fill:#DC5240;}
	.st4{fill:#892E1D;}
	.st5{fill:#AA4628;}
	.st6{fill:#6F1E14;}
	.st7{fill:#2C0412;}
	.st8{fill:#A4D877;}
	.st9{fill:#2AC06F;}
	.st10{fill:#F54045;}
	.st11{fill:#A91B35;}
	.st12{fill:#2652E4;}
	.st13{fill:#BDE5EC;}
	.st14{fill:#172A91;}
	.st15{fill:#F9A73D;}
	.st16{fill:#D25C2B;}
	.st17{fill:#812F4B;}
	.st18{fill:#3B0B1B;}
	.st19{fill:#FA9A31;}
	.st20{fill:#DC5F36;}
	.st21{fill:#BEECBD;}
	.st22{fill:#26E490;}
	.st23{fill:#10916A;}
	.st24{fill:#ECC6C3;}
	.st25{fill:#E44450;}
	.st26{fill:none;stroke:#E44450;stroke-width:2;stroke-linecap:round;stroke-miterlimit:10;}
	.st27{fill:none;stroke:#ECC6C3;stroke-width:4;stroke-linecap:round;stroke-miterlimit:10;}
	.st28{fill:url(#SVGID_1_);}
	.st29{fill:none;stroke:#BDE5EC;stroke-width:14;stroke-linecap:round;stroke-linejoin:round;stroke-miterlimit:10;}
	.st30{fill:none;stroke:#FFFFFF;stroke-width:6;stroke-linecap:round;stroke-miterlimit:10;}
	.st31{fill:none;stroke:#E44450;stroke-width:6;stroke-miterlimit:10;}
	.st32{fill:url(#SVGID_2_);}
	.st33{fill:none;stroke:#E44450;stroke-width:4;stroke-miterlimit:10;stroke-dasharray:6,4;}
	.st34{fill:none;stroke:#BDE5EC;stroke-width:4;stroke-miterlimit:10;}
	.st35{fill:url(#SVGID_3_);}
	.st36{fill:none;stroke:#FFFFFF;stroke-width:2;stroke-linecap:round;stroke-miterlimit:10;}
	.st37{fill:#FFFFFF;}
	.st38{opacity:0.5;}
	.st39{fill:none;stroke:#E1927A;stroke-width:10;stroke-linecap:round;stroke-miterlimit:10;}
	.st40{fill:#C1705D;}
	.st41{fill:none;stroke:#E1927A;stroke-width:2.8371;stroke-linecap:round;stroke-miterlimit:10;}
</style><circle
     class="st13"
     cx="64"
     cy="64"
     r="46.7"
     id="circle3870"
     style="fill:#29292d;fill-opacity:0.3764706" /><circle
     class="st0"
     cx="64"
     cy="64"
     r="35"
     id="circle3872"
     style="fill:#f7f7eb;fill-opacity:0.94117647" /><g
     id="g3876"><path
       class="st25"
       d="M67.7,3.1c1.4,0.5,1.9,1,2,1.5c0,0.5-0.2,1-0.8,1.5c-0.5,0.5-1.2,1-1.5,1.5C67,8,67,8.5,66.9,9   c-0.4,2-0.7,4-1,5.9c-0.3,2-0.5,4-0.6,5.9c-0.1,2-0.2,4,0,5.9c0.1,0.7-0.5,1.3-1.2,1.4c-0.7,0.1-1.3-0.5-1.4-1.2c0-0.1,0-0.1,0-0.2   c0.1-2,0.1-4,0-5.9c-0.1-2-0.3-4-0.6-5.9c-0.3-2-0.6-4-1-5.9c-0.1-0.5-0.1-1-0.5-1.5c-0.4-0.5-1-1-1.5-1.5c-0.5-0.5-0.8-1-0.8-1.5   c0.1-0.5,0.6-1,2-1.5C62.9,2.3,65.4,2.3,67.7,3.1z"
       id="path3874"
       style="fill:#cf2325;fill-opacity:1" /></g><g
     id="g3880"
     style="fill:#cf2325;fill-opacity:1"><path
       class="st25"
       d="M123.9,67.7c-0.5,1.4-1,1.9-1.5,2c-0.5,0-1-0.2-1.5-0.8c-0.5-0.5-1-1.2-1.5-1.5c-0.5-0.4-1-0.4-1.5-0.5   c-2-0.4-4-0.7-5.9-1c-2-0.3-4-0.5-5.9-0.6c-2-0.1-4-0.2-5.9,0c-0.7,0.1-1.3-0.5-1.4-1.2c-0.1-0.7,0.5-1.3,1.2-1.4   c0.1,0,0.1,0,0.2,0c2,0.1,4,0.1,5.9,0c2-0.1,4-0.3,5.9-0.6c2-0.3,4-0.6,5.9-1c0.5-0.1,1-0.1,1.5-0.5c0.5-0.4,1-1,1.5-1.5   c0.5-0.5,1-0.8,1.5-0.8c0.5,0.1,1,0.6,1.5,2C124.7,62.9,124.7,65.4,123.9,67.7z"
       id="path3878"
       style="fill:#cf2325;fill-opacity:1" /></g><g
     id="g3884"
     style="fill:#cf2325;fill-opacity:1"><path
       class="st25"
       d="M59.3,123.9c-1.4-0.5-1.9-1-2-1.5c0-0.5,0.2-1,0.8-1.5c0.5-0.5,1.2-1,1.5-1.5c0.4-0.5,0.4-1,0.5-1.5   c0.4-2,0.7-4,1-5.9c0.3-2,0.5-4,0.6-5.9c0.1-2,0.2-4,0-5.9c-0.1-0.7,0.5-1.3,1.2-1.4c0.7-0.1,1.3,0.5,1.4,1.2c0,0.1,0,0.1,0,0.2   c-0.1,2-0.1,4,0,5.9c0.1,2,0.3,4,0.6,5.9c0.3,2,0.6,4,1,5.9c0.1,0.5,0.1,1,0.5,1.5c0.4,0.5,1,1,1.5,1.5c0.5,0.5,0.8,1,0.8,1.5   c-0.1,0.5-0.6,1-2,1.5C64.1,124.7,61.6,124.7,59.3,123.9z"
       id="path3882"
       style="fill:#cf2325;fill-opacity:1" /></g><g
     id="g3888"
     style="fill:#cf2325;fill-opacity:1"><path
       class="st25"
       d="M3.1,59.3c0.5-1.4,1-1.9,1.5-2c0.5,0,1,0.2,1.5,0.8c0.5,0.5,1,1.2,1.5,1.5C8,60,8.5,60,9,60.1   c2,0.4,4,0.7,5.9,1c2,0.3,4,0.5,5.9,0.6c2,0.1,4,0.2,5.9,0c0.7-0.1,1.3,0.5,1.4,1.2c0.1,0.7-0.5,1.3-1.2,1.4c-0.1,0-0.1,0-0.2,0   c-2-0.1-4-0.1-5.9,0c-2,0.1-4,0.3-5.9,0.6c-2,0.3-4,0.6-5.9,1c-0.5,0.1-1,0.1-1.5,0.5c-0.5,0.4-1,1-1.5,1.5c-0.5,0.5-1,0.8-1.5,0.8   c-0.5-0.1-1-0.6-1.5-2C2.3,64.1,2.3,61.6,3.1,59.3z"
       id="path3886"
       style="fill:#cf2325;fill-opacity:1" /></g><g
     id="g3892"
     style="fill:#cf2325;fill-opacity:1"><path
       class="st25"
       d="M36.9,9.1c1.5-0.3,2.2-0.1,2.5,0.3c0.3,0.4,0.3,1,0.1,1.7c-0.2,0.7-0.5,1.4-0.6,2.1c-0.1,0.6,0.2,1,0.3,1.5   c0.7,1.9,1.4,3.8,2.1,5.6c0.8,1.8,1.6,3.7,2.5,5.4c0.9,1.8,1.8,3.5,3,5.1c0.4,0.6,0.2,1.4-0.3,1.8c-0.6,0.4-1.4,0.2-1.8-0.3   c0-0.1-0.1-0.1-0.1-0.2c-0.9-1.8-1.9-3.5-3-5.1c-1.1-1.7-2.2-3.3-3.5-4.8c-1.2-1.6-2.5-3.1-3.8-4.7c-0.3-0.4-0.6-0.8-1.2-1   c-0.6-0.2-1.4-0.3-2.1-0.5c-0.7-0.2-1.2-0.5-1.4-0.9c-0.2-0.5,0-1.1,1-2.3C32.3,10.8,34.6,9.6,36.9,9.1z"
       id="path3890"
       style="fill:#cf2325;fill-opacity:1" /></g><g
     id="g3896"
     style="fill:#cf2325;fill-opacity:1"><path
       class="st25"
       d="M117.9,36.9c0.3,1.5,0.1,2.2-0.3,2.5c-0.4,0.3-1,0.3-1.7,0.1c-0.7-0.2-1.4-0.5-2.1-0.6   c-0.6-0.1-1,0.2-1.5,0.3c-1.9,0.7-3.8,1.4-5.6,2.1c-1.8,0.8-3.7,1.6-5.4,2.5c-1.8,0.9-3.5,1.8-5.1,3c-0.6,0.4-1.4,0.2-1.8-0.3   c-0.4-0.6-0.2-1.4,0.3-1.8c0.1,0,0.1-0.1,0.2-0.1c1.8-0.9,3.5-1.9,5.1-3c1.7-1.1,3.3-2.2,4.8-3.5c1.6-1.2,3.1-2.5,4.7-3.8   c0.4-0.3,0.8-0.6,1-1.2c0.2-0.6,0.3-1.4,0.5-2.1c0.2-0.7,0.5-1.2,0.9-1.4c0.5-0.2,1.1,0,2.3,1C116.2,32.3,117.4,34.6,117.9,36.9z"
       id="path3894"
       style="fill:#cf2325;fill-opacity:1" /></g><g
     id="g3900"
     style="fill:#cf2325;fill-opacity:1"><path
       class="st25"
       d="M90.1,117.9c-1.5,0.3-2.2,0.1-2.5-0.3c-0.3-0.4-0.3-1-0.1-1.7c0.2-0.7,0.5-1.4,0.6-2.1c0.1-0.6-0.2-1-0.3-1.5   c-0.7-1.9-1.4-3.8-2.1-5.6c-0.8-1.8-1.6-3.7-2.5-5.4c-0.9-1.8-1.8-3.5-3-5.1c-0.4-0.6-0.2-1.4,0.3-1.8s1.4-0.2,1.8,0.3   c0,0.1,0.1,0.1,0.1,0.2c0.9,1.8,1.9,3.5,3,5.1c1.1,1.7,2.2,3.3,3.5,4.8c1.2,1.6,2.5,3.1,3.8,4.7c0.3,0.4,0.6,0.8,1.2,1   c0.6,0.2,1.4,0.3,2.1,0.5c0.7,0.2,1.2,0.5,1.4,0.9c0.2,0.5,0,1.1-1,2.3C94.7,116.2,92.4,117.4,90.1,117.9z"
       id="path3898"
       style="fill:#cf2325;fill-opacity:1" /></g><g
     id="g3904"
     style="fill:#cf2325;fill-opacity:1"><path
       class="st25"
       d="M9.1,90.1c-0.3-1.5-0.1-2.2,0.3-2.5c0.4-0.3,1-0.3,1.7-0.1c0.7,0.2,1.4,0.5,2.1,0.6c0.6,0.1,1-0.2,1.5-0.3   c1.9-0.7,3.8-1.4,5.6-2.1c1.8-0.8,3.7-1.6,5.4-2.5c1.8-0.9,3.5-1.8,5.1-3c0.6-0.4,1.4-0.2,1.8,0.3s0.2,1.4-0.3,1.8   c-0.1,0-0.1,0.1-0.2,0.1c-1.8,0.9-3.5,1.9-5.1,3c-1.7,1.1-3.3,2.2-4.8,3.5c-1.6,1.2-3.1,2.5-4.7,3.8c-0.4,0.3-0.8,0.6-1,1.2   c-0.2,0.6-0.3,1.4-0.5,2.1c-0.2,0.7-0.5,1.2-0.9,1.4c-0.5,0.2-1.1,0-2.3-1C10.8,94.7,9.6,92.4,9.1,90.1z"
       id="path3902"
       style="fill:#cf2325;fill-opacity:1" /></g><g
     id="g3908"
     style="fill:#cf2325;fill-opacity:1"><path
       class="st25"
       d="M13.3,29.7c1.1-1,1.8-1.2,2.3-1c0.5,0.2,0.7,0.7,0.9,1.4c0.2,0.7,0.3,1.5,0.5,2.1c0.2,0.6,0.7,0.8,1,1.2   c1.5,1.3,3.1,2.6,4.7,3.8c1.6,1.2,3.2,2.4,4.8,3.5c1.7,1.1,3.3,2.1,5.1,3c0.6,0.3,0.9,1.1,0.6,1.7c-0.3,0.6-1.1,0.9-1.7,0.6   c-0.1,0-0.1-0.1-0.2-0.1c-1.6-1.1-3.4-2.1-5.1-3c-1.8-0.9-3.6-1.7-5.4-2.5c-1.8-0.8-3.7-1.5-5.6-2.1c-0.5-0.2-0.9-0.4-1.5-0.3   c-0.6,0.1-1.4,0.4-2.1,0.6c-0.7,0.2-1.3,0.2-1.7-0.1c-0.4-0.3-0.6-1-0.3-2.5C10.2,33.4,11.5,31.2,13.3,29.7z"
       id="path3906"
       style="fill:#cf2325;fill-opacity:1" /></g><g
     id="g3912"
     style="fill:#cf2325;fill-opacity:1"><path
       class="st25"
       d="M97.3,13.3c1,1.1,1.2,1.8,1,2.3c-0.2,0.5-0.7,0.7-1.4,0.9c-0.7,0.2-1.5,0.3-2.1,0.5c-0.6,0.2-0.8,0.7-1.2,1   c-1.3,1.5-2.6,3.1-3.8,4.7c-1.2,1.6-2.4,3.2-3.5,4.8c-1.1,1.7-2.1,3.3-3,5.1c-0.3,0.6-1.1,0.9-1.7,0.6c-0.6-0.3-0.9-1.1-0.6-1.7   c0-0.1,0.1-0.1,0.1-0.2c1.1-1.6,2.1-3.4,3-5.1c0.9-1.8,1.7-3.6,2.5-5.4c0.8-1.8,1.5-3.7,2.1-5.6c0.2-0.5,0.4-0.9,0.3-1.5   c-0.1-0.6-0.4-1.4-0.6-2.1c-0.2-0.7-0.2-1.3,0.1-1.7c0.3-0.4,1-0.6,2.5-0.3C93.6,10.2,95.8,11.5,97.3,13.3z"
       id="path3910"
       style="fill:#cf2325;fill-opacity:1" /></g><g
     id="g3916"
     style="fill:#cf2325;fill-opacity:1"><path
       class="st25"
       d="M113.7,97.3c-1.1,1-1.8,1.2-2.3,1c-0.5-0.2-0.7-0.7-0.9-1.4c-0.2-0.7-0.3-1.5-0.5-2.1c-0.2-0.6-0.7-0.8-1-1.2   c-1.5-1.3-3.1-2.6-4.7-3.8c-1.6-1.2-3.2-2.4-4.8-3.5c-1.7-1.1-3.3-2.1-5.1-3c-0.6-0.3-0.9-1.1-0.6-1.7s1.1-0.9,1.7-0.6   c0.1,0,0.1,0.1,0.2,0.1c1.6,1.1,3.4,2.1,5.1,3c1.8,0.9,3.6,1.7,5.4,2.5c1.8,0.8,3.7,1.5,5.6,2.1c0.5,0.2,0.9,0.4,1.5,0.3   c0.6-0.1,1.4-0.4,2.1-0.6c0.7-0.2,1.3-0.2,1.7,0.1c0.4,0.3,0.6,1,0.3,2.5C116.8,93.6,115.5,95.8,113.7,97.3z"
       id="path3914"
       style="fill:#cf2325;fill-opacity:1" /></g><g
     id="g3920"
     style="fill:#cf2325;fill-opacity:1"><path
       class="st25"
       d="M29.7,113.7c-1-1.1-1.2-1.8-1-2.3c0.2-0.5,0.7-0.7,1.4-0.9c0.7-0.2,1.5-0.3,2.1-0.5c0.6-0.2,0.8-0.7,1.2-1   c1.3-1.5,2.6-3.1,3.8-4.7c1.2-1.6,2.4-3.2,3.5-4.8c1.1-1.7,2.1-3.3,3-5.1c0.3-0.6,1.1-0.9,1.7-0.6s0.9,1.1,0.6,1.7   c0,0.1-0.1,0.1-0.1,0.2c-1.1,1.6-2.1,3.4-3,5.1c-0.9,1.8-1.7,3.6-2.5,5.4c-0.8,1.8-1.5,3.7-2.1,5.6c-0.2,0.5-0.4,0.9-0.3,1.5   c0.1,0.6,0.4,1.4,0.6,2.1c0.2,0.7,0.2,1.3-0.1,1.7c-0.3,0.4-1,0.6-2.5,0.3C33.4,116.8,31.2,115.5,29.7,113.7z"
       id="path3918"
       style="fill:#cf2325;fill-opacity:1" /></g><g
     id="g3924"
     style="fill:#29292d;fill-opacity:1"><path
       class="st12"
       d="M71.8,28.5c0.5-0.9,0.9-1.9,1.2-2.8c0.3-1,0.5-1.9,0.7-2.9c0.1-1,0.1-2.1,0-3.1c0-0.5,0-1,0.1-1.5   c0.1-0.5,0-1,0.9-1.3c1.2-0.3,2.5,0,3.3,0.9c0.7,0.7,0.3,1.1,0.2,1.6c-0.2,0.5-0.4,0.9-0.7,1.4c-0.5,0.9-1.1,1.8-1.5,2.7   c-0.4,0.9-0.6,1.9-0.9,2.9c-0.2,1-0.4,2-0.3,3c0,0.9-0.7,1.6-1.6,1.6s-1.6-0.7-1.6-1.6C71.5,29.1,71.6,28.8,71.8,28.5z"
       id="path3922"
       style="fill:#29292d;fill-opacity:1" /></g><g
     id="g3928"
     style="fill:#29292d;fill-opacity:1"><path
       class="st12"
       d="M55.3,99.3c-0.6,0.9-0.9,1.8-1.3,2.8c-0.3,1-0.6,1.9-0.8,2.9c-0.2,1-0.1,2.1-0.1,3.1c0,0.5,0,1-0.1,1.5   c-0.1,0.5,0,1-1,1.3c-1.2,0.3-2.5-0.1-3.3-1c-0.7-0.7-0.3-1.1-0.1-1.6c0.2-0.5,0.5-0.9,0.7-1.4c0.6-0.9,1.2-1.8,1.6-2.7   c0.4-0.9,0.7-1.9,0.9-2.9c0.2-1,0.4-2,0.4-3c0-0.9,0.7-1.6,1.6-1.6c0.9,0,1.6,0.7,1.6,1.6C55.5,98.8,55.4,99.1,55.3,99.3z"
       id="path3926"
       style="fill:#29292d;fill-opacity:1" /></g><g
     id="g3932"
     style="fill:#29292d;fill-opacity:1"><path
       class="st12"
       d="M98.7,72.2c0.9,0.5,1.9,0.9,2.8,1.2c1,0.3,1.9,0.5,2.9,0.7c1,0.1,2.1,0.1,3.1,0c0.5,0,1,0,1.5,0.1   c0.5,0.1,1,0,1.3,0.9c0.3,1.2,0,2.5-0.9,3.3c-0.7,0.7-1.1,0.3-1.6,0.2c-0.5-0.2-0.9-0.4-1.4-0.7c-0.9-0.5-1.8-1.1-2.7-1.5   c-0.9-0.4-1.9-0.6-2.9-0.9c-1-0.2-2-0.4-3-0.3c-0.9,0-1.6-0.7-1.6-1.6c0-0.9,0.7-1.6,1.6-1.6C98.2,72,98.5,72.1,98.7,72.2z"
       id="path3930"
       style="fill:#29292d;fill-opacity:1" /></g><g
     id="g3936"
     style="fill:#29292d;fill-opacity:1"><path
       class="st12"
       d="M28,55.8c-0.9-0.6-1.8-0.9-2.8-1.3c-1-0.3-1.9-0.6-2.9-0.8c-1-0.2-2.1-0.1-3.1-0.1c-0.5,0-1,0-1.5-0.1   c-0.5-0.1-1,0-1.3-1c-0.3-1.2,0.1-2.5,1-3.3c0.7-0.7,1.1-0.3,1.6-0.1c0.5,0.2,0.9,0.5,1.4,0.7c0.9,0.6,1.8,1.2,2.7,1.6   c0.9,0.4,1.9,0.7,2.9,0.9c1,0.2,2,0.4,3,0.4c0.9,0,1.6,0.7,1.6,1.6S29.7,56,28.8,56C28.5,56,28.2,55.9,28,55.8z"
       id="path3934"
       style="fill:#29292d;fill-opacity:1" /></g><g
     id="g3940"
     style="fill:#29292d;fill-opacity:1"><path
       class="st12"
       d="M98.2,53.4c1,0,2-0.2,3-0.4c1-0.2,1.9-0.5,2.9-0.9c0.9-0.4,1.8-1,2.7-1.5c0.4-0.3,0.9-0.5,1.4-0.7   c0.5-0.2,0.9-0.5,1.6,0.2c0.9,0.9,1.2,2.2,0.9,3.3c-0.3,1-0.8,0.9-1.3,1c-0.5,0.1-1,0.1-1.5,0.1c-1,0-2.1-0.1-3.1,0.1   c-1,0.2-2,0.4-2.9,0.7c-1,0.3-1.9,0.7-2.8,1.2c-0.8,0.5-1.7,0.2-2.2-0.5c-0.5-0.8-0.2-1.7,0.5-2.2C97.6,53.5,97.9,53.4,98.2,53.4z"
       id="path3938"
       style="fill:#29292d;fill-opacity:1" /></g><g
     id="g3944"
     style="fill:#29292d;fill-opacity:1"><path
       class="st12"
       d="M28.7,74.6c-1,0-2.1,0.1-3,0.3c-1,0.2-2,0.5-2.9,0.8c-1,0.3-1.8,0.9-2.8,1.4c-0.5,0.3-0.9,0.5-1.4,0.7   c-0.5,0.2-0.9,0.5-1.6-0.2c-0.9-0.9-1.1-2.2-0.8-3.3c0.3-1,0.8-0.8,1.3-0.9c0.5-0.1,1-0.1,1.5,0c1,0,2.1,0.1,3.1,0   c1-0.1,2-0.3,3-0.6c1-0.3,1.9-0.6,2.8-1.1c0.8-0.4,1.7-0.2,2.2,0.6c0.4,0.8,0.2,1.7-0.6,2.2C29.2,74.5,28.9,74.6,28.7,74.6z"
       id="path3942"
       style="fill:#29292d;fill-opacity:1" /></g><g
     id="g3948"
     style="fill:#29292d;fill-opacity:1"><path
       class="st12"
       d="M73.8,98.6c0,1,0.2,2,0.4,3c0.2,1,0.5,1.9,0.9,2.9c0.4,0.9,1,1.8,1.5,2.7c0.3,0.4,0.5,0.9,0.7,1.4   c0.2,0.5,0.5,0.9-0.2,1.6c-0.9,0.9-2.2,1.2-3.3,0.9c-1-0.3-0.9-0.8-1-1.3c-0.1-0.5-0.1-1-0.1-1.5c0-1,0.1-2.1-0.1-3.1   c-0.2-1-0.4-2-0.7-2.9c-0.3-1-0.7-1.9-1.2-2.8c-0.5-0.8-0.2-1.7,0.5-2.2s1.7-0.2,2.2,0.5C73.8,98.1,73.8,98.3,73.8,98.6z"
       id="path3946"
       style="fill:#29292d;fill-opacity:1" /></g><g
     id="g3952"
     style="fill:#29292d;fill-opacity:1"><path
       class="st12"
       d="M52.7,29.1c0-1-0.1-2.1-0.3-3c-0.2-1-0.5-2-0.8-2.9c-0.3-1-0.9-1.8-1.4-2.8c-0.3-0.5-0.5-0.9-0.7-1.4   c-0.2-0.5-0.5-0.9,0.2-1.6c0.9-0.9,2.2-1.1,3.3-0.8c1,0.3,0.8,0.8,0.9,1.3c0.1,0.5,0.1,1,0,1.5c0,1-0.1,2.1,0,3.1   c0.1,1,0.3,2,0.6,3c0.3,1,0.6,1.9,1.1,2.8c0.4,0.8,0.2,1.7-0.6,2.2c-0.8,0.4-1.7,0.2-2.2-0.6C52.7,29.7,52.7,29.4,52.7,29.1z"
       id="path3950"
       style="fill:#29292d;fill-opacity:1" /></g><g
     id="g3956"
     style="fill:#29292d;fill-opacity:1"><path
       class="st12"
       d="M88.3,37.4c0.9-0.5,1.7-1.2,2.4-1.8c0.7-0.7,1.4-1.4,2.1-2.2c0.6-0.8,1.1-1.8,1.6-2.7   c0.3-0.5,0.5-0.9,0.8-1.3c0.3-0.4,0.5-0.9,1.5-0.7c1.2,0.3,2.1,1.3,2.4,2.4c0.3,1-0.3,1.2-0.7,1.5c-0.4,0.3-0.8,0.6-1.3,0.8   c-0.9,0.5-1.9,1-2.7,1.6c-0.8,0.6-1.5,1.3-2.2,2.1c-0.7,0.8-1.3,1.5-1.8,2.5c-0.4,0.8-1.4,1-2.2,0.6c-0.8-0.4-1-1.4-0.6-2.2   C87.8,37.8,88.1,37.6,88.3,37.4z"
       id="path3954"
       style="fill:#29292d;fill-opacity:1" /></g><g
     id="g3960"
     style="fill:#29292d;fill-opacity:1"><path
       class="st12"
       d="M38.7,90.5c-0.9,0.5-1.7,1.1-2.5,1.8c-0.8,0.7-1.5,1.4-2.1,2.2c-0.7,0.8-1.1,1.7-1.7,2.6   c-0.3,0.4-0.5,0.9-0.9,1.3C31.2,98.7,31,99.2,30,99c-1.2-0.3-2.1-1.3-2.4-2.5c-0.2-1,0.3-1.1,0.7-1.5c0.4-0.3,0.9-0.6,1.3-0.8   c0.9-0.5,1.9-0.9,2.7-1.5c0.8-0.6,1.5-1.3,2.3-2c0.7-0.7,1.4-1.5,1.9-2.4c0.4-0.8,1.4-1,2.2-0.6c0.8,0.4,1,1.4,0.6,2.2   C39.1,90.2,38.9,90.4,38.7,90.5z"
       id="path3958"
       style="fill:#29292d;fill-opacity:1" /></g><g
     id="g3964"
     style="fill:#29292d;fill-opacity:1"><path
       class="st12"
       d="M89.8,88.8c0.5,0.9,1.2,1.7,1.8,2.4c0.7,0.7,1.4,1.4,2.2,2.1c0.8,0.6,1.8,1.1,2.7,1.6   c0.5,0.3,0.9,0.5,1.3,0.8c0.4,0.3,0.9,0.5,0.7,1.5c-0.3,1.2-1.3,2.1-2.4,2.4c-1,0.3-1.2-0.3-1.5-0.7c-0.3-0.4-0.6-0.8-0.8-1.3   c-0.5-0.9-1-1.9-1.6-2.7c-0.6-0.8-1.3-1.5-2.1-2.2c-0.8-0.7-1.5-1.3-2.5-1.8c-0.8-0.4-1-1.4-0.6-2.2c0.4-0.8,1.4-1,2.2-0.6   C89.5,88.3,89.7,88.5,89.8,88.8z"
       id="path3962"
       style="fill:#29292d;fill-opacity:1" /></g><g
     id="g3968"
     style="fill:#29292d;fill-opacity:1"><path
       class="st12"
       d="M36.8,39.1c-0.5-0.9-1.1-1.7-1.8-2.5c-0.7-0.8-1.4-1.5-2.2-2.1c-0.8-0.7-1.7-1.1-2.6-1.7   c-0.4-0.3-0.9-0.5-1.3-0.9c-0.4-0.3-0.9-0.5-0.6-1.5c0.3-1.2,1.3-2.1,2.5-2.4c1-0.2,1.1,0.3,1.5,0.7c0.3,0.4,0.6,0.9,0.8,1.3   c0.5,0.9,0.9,1.9,1.5,2.7c0.6,0.8,1.3,1.5,2,2.3c0.7,0.7,1.5,1.4,2.4,1.9c0.8,0.4,1,1.4,0.6,2.2c-0.4,0.8-1.4,1-2.2,0.6   C37.1,39.6,36.9,39.4,36.8,39.1z"
       id="path3966"
       style="fill:#29292d;fill-opacity:1" /></g><g
     id="g3976"
     style="fill:#cf2325;fill-opacity:1"><g
       id="g3974"
       style="fill:#cf2325;fill-opacity:1;stroke:#cf2325;stroke-opacity:0.50196081"><g
         id="g3972"
         style="fill:#cf2325;fill-opacity:1;stroke:#cf2325;stroke-opacity:0.50196081"><path
           class="st27"
           d="M65.7,91.8c1.2-2.8,2-5.8,2.5-8.7c0.4-3,0.4-5.8,0-8.7c-0.1-0.7,0-1.1,0.2-1.2c0.2-0.1,0.6,0.1,1.1,0.7     c1.4,1.8,3.1,3.4,4.9,4.9c1.8,1.5,3.9,2.7,6.1,3.8c1.4,0.7,2.8-0.5,2.1-2c-0.9-2.3-2.1-4.4-3.4-6.3c-0.7-1-1.4-1.9-2.1-2.8     c-0.8-0.9-1.6-1.7-2.4-2.5c-1-1-0.8-1.5,0.6-1.2c2.3,0.5,4.5,0.7,6.9,0.7c2.3-0.1,4.8-0.3,7.1-0.9c1.5-0.4,1.8-2.2,0.4-2.9     c-2.2-1.2-4.4-2-6.7-2.7c-1.1-0.3-2.3-0.6-3.4-0.8c-1.2-0.2-2.3-0.3-3.5-0.4c-1.4-0.1-1.6-0.7-0.3-1.4c2.1-1.1,3.9-2.4,5.8-3.9     c1.8-1.5,3.4-3.3,4.9-5.3c0.9-1.2,0-2.8-1.6-2.5c-2.4,0.5-4.7,1.2-6.9,2.2c-2.1,0.9-4.2,2.1-6,3.5c-1.2,0.8-1.7,0.5-1.1-0.9     c0.9-2.1,1.5-4.3,1.9-6.7c0.4-2.3,0.6-4.8,0.4-7.2c0-0.8-0.5-1.3-1-1.5c-0.6-0.2-1.2,0-1.7,0.6c-0.8,1-1.5,1.9-2.1,2.9     c-0.7,1-1.2,2.1-1.8,3.1c-1,2.1-1.8,4.3-2.4,6.5c-0.4,1.4-1,1.5-1.4,0c-0.7-2.2-1.6-4.3-2.8-6.4c-1.2-2-2.6-4-4.2-5.8     c-1-1.2-2.8-0.6-2.7,1.1c0,1.2,0.1,2.4,0.2,3.6c0.1,1.2,0.4,2.4,0.6,3.5c0.5,2.3,1.3,4.5,2.3,6.5c0.6,1.3,0.2,1.8-1.1,0.9     c-1.9-1.2-4-2.3-6.2-3.1c-2.2-0.8-4.6-1.5-7-1.8c-0.8-0.1-1.4,0.2-1.7,0.7c-0.3,0.5-0.2,1.2,0.3,1.8c3.1,3.7,7,6.6,11.2,8.5     c1.3,0.6,1.3,1.2-0.2,1.4c-2.2,0.3-4.5,0.8-6.8,1.5c-2.2,0.8-4.4,1.8-6.5,3.1c-0.7,0.4-0.9,1.1-0.8,1.6c0.1,0.6,0.6,1.1,1.4,1.2     c4.8,0.9,9.6,0.6,14.1-0.6c0.7-0.2,1.2-0.2,1.3,0.1c0.1,0.2,0,0.6-0.6,1.1c-4,4.1-6.9,9.4-8.3,15.5"
           id="path3970"
           style="fill:#cf2325;fill-opacity:1;stroke:#cf2325;stroke-opacity:0.50196081" /></g></g></g><path
     style="stroke-width:0.16120906;fill:#cf2325;fill-opacity:0"
     d="m 45.016214,32.491688 c -0.136638,-0.110832 -0.592391,-0.854408 -1.012784,-1.652393 -1.221595,-2.318814 -4.222266,-6.68875 -6.807816,-9.914358 -3.461686,-4.318633 -3.562869,-4.412373 -5.13113,-4.753732 -1.542534,-0.335759 -2.132015,-0.614961 -2.361427,-1.118465 -0.26588,-0.583542 0.230985,-1.450578 1.625289,-2.836152 1.422648,-1.41374 3.173253,-2.4087939 5.108651,-2.9037853 1.578196,-0.4036346 2.169143,-0.3999601 2.698945,0.016782 0.539069,0.4240319 0.542807,0.8657543 0.02252,2.6611563 -0.245031,0.845553 -0.362291,1.555328 -0.300022,1.816038 0.202965,0.849784 2.465813,6.757017 3.282489,8.56904 1.247836,2.768667 2.852385,5.833519 3.827854,7.31159 1.04903,1.589531 1.151617,1.973099 0.686021,2.565009 -0.381667,0.485212 -1.189886,0.603228 -1.63859,0.23927 z"
     id="path3985"
     inkscape:connector-curvature="0" /><path
     style="fill:#cf2325;fill-opacity:0;stroke-width:0.16120906"
     d="m 63.193955,27.695718 c -0.17733,-0.17733 -0.325541,-0.376826 -0.329356,-0.443325 -0.0038,-0.0665 -0.03115,-1.825693 -0.06074,-3.90932 -0.03115,-2.19318 -0.168177,-4.738765 -0.325421,-6.04534 -0.31932,-2.6533 -1.331161,-8.7971339 -1.538733,-9.343089 -0.0793,-0.2085855 -0.653746,-0.888803 -1.276537,-1.5115944 -1.63457,-1.6345703 -1.674454,-2.1787312 -0.217797,-2.9715435 0.878836,-0.4783222 3.090192,-0.9244028 4.582544,-0.9244028 1.176282,0 3.180658,0.4010701 4.209742,0.8423581 0.831778,0.3566797 1.404662,0.9472873 1.404662,1.4481185 0,0.1718678 -0.570518,0.9082142 -1.267818,1.6363254 -0.6973,0.7281113 -1.312409,1.4663738 -1.36691,1.6405838 -0.185508,0.592973 -1.214622,6.9184209 -1.480946,9.1026389 -0.148735,1.219824 -0.293665,3.876766 -0.32976,6.045341 -0.03542,2.127959 -0.0653,3.920599 -0.06641,3.983643 -0.0011,0.06305 -0.160778,0.262542 -0.354826,0.443325 -0.449155,0.418452 -1.166674,0.421301 -1.581693,0.0063 z"
     id="path4792"
     inkscape:connector-curvature="0" /></svg>